<mxfile host="Electron" agent="Mozilla/5.0 (Windows NT 10.0; Win64; x64) AppleWebKit/537.36 (KHTML, like Gecko) draw.io/27.0.5 Chrome/134.0.6998.205 Electron/35.3.0 Safari/537.36" version="27.0.5" pages="3">
  <diagram name="Diagrama de clases" id="LKYorefjKG3xT_lMc5ZG">
    <mxGraphModel dx="719" dy="432" grid="1" gridSize="10" guides="1" tooltips="1" connect="1" arrows="1" fold="1" page="1" pageScale="1" pageWidth="827" pageHeight="1169" math="0" shadow="0">
      <root>
        <mxCell id="0" />
        <mxCell id="1" parent="0" />
        <mxCell id="MRtuCOUUgsn-OwO4rpEl-3" value="" style="edgeStyle=orthogonalEdgeStyle;rounded=0;orthogonalLoop=1;jettySize=auto;html=1;" edge="1" parent="1" source="MRtuCOUUgsn-OwO4rpEl-1" target="MRtuCOUUgsn-OwO4rpEl-2">
          <mxGeometry relative="1" as="geometry" />
        </mxCell>
        <mxCell id="MRtuCOUUgsn-OwO4rpEl-6" value="" style="edgeStyle=orthogonalEdgeStyle;rounded=0;orthogonalLoop=1;jettySize=auto;html=1;" edge="1" parent="1" source="MRtuCOUUgsn-OwO4rpEl-1" target="MRtuCOUUgsn-OwO4rpEl-5">
          <mxGeometry relative="1" as="geometry" />
        </mxCell>
        <mxCell id="MRtuCOUUgsn-OwO4rpEl-9" value="" style="edgeStyle=orthogonalEdgeStyle;rounded=0;orthogonalLoop=1;jettySize=auto;html=1;" edge="1" parent="1" target="MRtuCOUUgsn-OwO4rpEl-8">
          <mxGeometry relative="1" as="geometry">
            <mxPoint x="480" y="170" as="sourcePoint" />
          </mxGeometry>
        </mxCell>
        <mxCell id="MRtuCOUUgsn-OwO4rpEl-1" value="SystemManager" style="rounded=0;whiteSpace=wrap;html=1;" vertex="1" parent="1">
          <mxGeometry x="320" y="150" width="160" height="40" as="geometry" />
        </mxCell>
        <mxCell id="MRtuCOUUgsn-OwO4rpEl-35" style="edgeStyle=orthogonalEdgeStyle;rounded=0;orthogonalLoop=1;jettySize=auto;html=1;entryX=0.5;entryY=0;entryDx=0;entryDy=0;" edge="1" parent="1" source="MRtuCOUUgsn-OwO4rpEl-2" target="MRtuCOUUgsn-OwO4rpEl-31">
          <mxGeometry relative="1" as="geometry" />
        </mxCell>
        <mxCell id="MRtuCOUUgsn-OwO4rpEl-2" value="userInterface" style="whiteSpace=wrap;html=1;rounded=0;" vertex="1" parent="1">
          <mxGeometry x="180" y="250" width="120" height="30" as="geometry" />
        </mxCell>
        <mxCell id="MRtuCOUUgsn-OwO4rpEl-12" style="edgeStyle=orthogonalEdgeStyle;rounded=0;orthogonalLoop=1;jettySize=auto;html=1;exitX=0.75;exitY=1;exitDx=0;exitDy=0;entryX=0;entryY=0.5;entryDx=0;entryDy=0;" edge="1" parent="1" source="MRtuCOUUgsn-OwO4rpEl-5" target="MRtuCOUUgsn-OwO4rpEl-10">
          <mxGeometry relative="1" as="geometry" />
        </mxCell>
        <mxCell id="MRtuCOUUgsn-OwO4rpEl-14" value="" style="edgeStyle=orthogonalEdgeStyle;rounded=0;orthogonalLoop=1;jettySize=auto;html=1;" edge="1" parent="1" source="MRtuCOUUgsn-OwO4rpEl-5" target="MRtuCOUUgsn-OwO4rpEl-13">
          <mxGeometry relative="1" as="geometry" />
        </mxCell>
        <mxCell id="MRtuCOUUgsn-OwO4rpEl-5" value="dataLogger" style="whiteSpace=wrap;html=1;rounded=0;" vertex="1" parent="1">
          <mxGeometry x="335" y="250" width="130" height="30" as="geometry" />
        </mxCell>
        <mxCell id="MRtuCOUUgsn-OwO4rpEl-11" style="edgeStyle=orthogonalEdgeStyle;rounded=0;orthogonalLoop=1;jettySize=auto;html=1;entryX=1;entryY=0.5;entryDx=0;entryDy=0;" edge="1" parent="1" source="MRtuCOUUgsn-OwO4rpEl-8" target="MRtuCOUUgsn-OwO4rpEl-10">
          <mxGeometry relative="1" as="geometry" />
        </mxCell>
        <mxCell id="MRtuCOUUgsn-OwO4rpEl-8" value="webServer" style="whiteSpace=wrap;html=1;rounded=0;" vertex="1" parent="1">
          <mxGeometry x="500" y="250" width="140" height="30" as="geometry" />
        </mxCell>
        <mxCell id="MRtuCOUUgsn-OwO4rpEl-10" value="SD Card" style="rounded=0;whiteSpace=wrap;html=1;" vertex="1" parent="1">
          <mxGeometry x="465" y="290" width="60" height="30" as="geometry" />
        </mxCell>
        <mxCell id="MRtuCOUUgsn-OwO4rpEl-23" value="" style="edgeStyle=orthogonalEdgeStyle;rounded=0;orthogonalLoop=1;jettySize=auto;html=1;" edge="1" parent="1" source="MRtuCOUUgsn-OwO4rpEl-13" target="MRtuCOUUgsn-OwO4rpEl-22">
          <mxGeometry relative="1" as="geometry" />
        </mxCell>
        <mxCell id="MRtuCOUUgsn-OwO4rpEl-25" value="" style="edgeStyle=orthogonalEdgeStyle;rounded=0;orthogonalLoop=1;jettySize=auto;html=1;exitX=0.955;exitY=0.98;exitDx=0;exitDy=0;exitPerimeter=0;" edge="1" parent="1" source="MRtuCOUUgsn-OwO4rpEl-13">
          <mxGeometry relative="1" as="geometry">
            <mxPoint x="466" y="360" as="sourcePoint" />
            <mxPoint x="480" y="400" as="targetPoint" />
            <Array as="points">
              <mxPoint x="450" y="359" />
              <mxPoint x="450" y="380" />
              <mxPoint x="480" y="380" />
            </Array>
          </mxGeometry>
        </mxCell>
        <mxCell id="MRtuCOUUgsn-OwO4rpEl-13" value="AHRS" style="whiteSpace=wrap;html=1;rounded=0;" vertex="1" parent="1">
          <mxGeometry x="343.75" y="330" width="112.5" height="30" as="geometry" />
        </mxCell>
        <mxCell id="MRtuCOUUgsn-OwO4rpEl-19" value="Madgwick" style="whiteSpace=wrap;html=1;rounded=0;" vertex="1" parent="1">
          <mxGeometry x="300" y="400" width="60" height="30" as="geometry" />
        </mxCell>
        <mxCell id="MRtuCOUUgsn-OwO4rpEl-21" style="edgeStyle=orthogonalEdgeStyle;rounded=0;orthogonalLoop=1;jettySize=auto;html=1;exitX=0.25;exitY=1;exitDx=0;exitDy=0;entryX=0.442;entryY=-0.029;entryDx=0;entryDy=0;entryPerimeter=0;" edge="1" parent="1" source="MRtuCOUUgsn-OwO4rpEl-13" target="MRtuCOUUgsn-OwO4rpEl-19">
          <mxGeometry relative="1" as="geometry">
            <Array as="points">
              <mxPoint x="350" y="360" />
              <mxPoint x="350" y="380" />
              <mxPoint x="327" y="380" />
            </Array>
          </mxGeometry>
        </mxCell>
        <mxCell id="MRtuCOUUgsn-OwO4rpEl-30" style="edgeStyle=orthogonalEdgeStyle;rounded=0;orthogonalLoop=1;jettySize=auto;html=1;entryX=0;entryY=0.5;entryDx=0;entryDy=0;" edge="1" parent="1" source="MRtuCOUUgsn-OwO4rpEl-22" target="MRtuCOUUgsn-OwO4rpEl-28">
          <mxGeometry relative="1" as="geometry">
            <Array as="points">
              <mxPoint x="400" y="511" />
            </Array>
          </mxGeometry>
        </mxCell>
        <mxCell id="MRtuCOUUgsn-OwO4rpEl-22" value="LIS3MDL" style="whiteSpace=wrap;html=1;rounded=0;" vertex="1" parent="1">
          <mxGeometry x="366.25" y="400" width="67.5" height="30" as="geometry" />
        </mxCell>
        <mxCell id="MRtuCOUUgsn-OwO4rpEl-27" value="" style="edgeStyle=orthogonalEdgeStyle;rounded=0;orthogonalLoop=1;jettySize=auto;html=1;" edge="1" parent="1" source="MRtuCOUUgsn-OwO4rpEl-24" target="MRtuCOUUgsn-OwO4rpEl-26">
          <mxGeometry relative="1" as="geometry" />
        </mxCell>
        <mxCell id="MRtuCOUUgsn-OwO4rpEl-24" value="ICM20649" style="whiteSpace=wrap;html=1;rounded=0;" vertex="1" parent="1">
          <mxGeometry x="450" y="400" width="60" height="30" as="geometry" />
        </mxCell>
        <mxCell id="MRtuCOUUgsn-OwO4rpEl-29" value="" style="edgeStyle=orthogonalEdgeStyle;rounded=0;orthogonalLoop=1;jettySize=auto;html=1;" edge="1" parent="1" source="MRtuCOUUgsn-OwO4rpEl-26" target="MRtuCOUUgsn-OwO4rpEl-28">
          <mxGeometry relative="1" as="geometry" />
        </mxCell>
        <mxCell id="MRtuCOUUgsn-OwO4rpEl-26" value="ICM20X" style="whiteSpace=wrap;html=1;rounded=0;" vertex="1" parent="1">
          <mxGeometry x="445" y="450" width="70" height="25" as="geometry" />
        </mxCell>
        <mxCell id="MRtuCOUUgsn-OwO4rpEl-28" value="Adafruit BusIO" style="whiteSpace=wrap;html=1;rounded=0;" vertex="1" parent="1">
          <mxGeometry x="435" y="500" width="90" height="22.5" as="geometry" />
        </mxCell>
        <mxCell id="MRtuCOUUgsn-OwO4rpEl-31" value="RTTTLPlayer" style="whiteSpace=wrap;html=1;rounded=0;" vertex="1" parent="1">
          <mxGeometry x="200" y="305" width="80" height="25" as="geometry" />
        </mxCell>
        <mxCell id="MRtuCOUUgsn-OwO4rpEl-34" style="edgeStyle=orthogonalEdgeStyle;rounded=0;orthogonalLoop=1;jettySize=auto;html=1;entryX=0.5;entryY=0;entryDx=0;entryDy=0;" edge="1" parent="1" source="MRtuCOUUgsn-OwO4rpEl-33" target="MRtuCOUUgsn-OwO4rpEl-1">
          <mxGeometry relative="1" as="geometry" />
        </mxCell>
        <mxCell id="MRtuCOUUgsn-OwO4rpEl-33" value="main" style="rounded=0;whiteSpace=wrap;html=1;" vertex="1" parent="1">
          <mxGeometry x="367.5" y="90" width="65" height="30" as="geometry" />
        </mxCell>
      </root>
    </mxGraphModel>
  </diagram>
  <diagram id="OilABfG9qG_UTp373mmn" name="General State machine">
    <mxGraphModel dx="834" dy="501" grid="1" gridSize="10" guides="1" tooltips="1" connect="1" arrows="1" fold="1" page="1" pageScale="1" pageWidth="827" pageHeight="1169" math="0" shadow="0">
      <root>
        <mxCell id="0" />
        <mxCell id="1" parent="0" />
        <mxCell id="vXlqMqH51fkINQWh0kDk-11" value="" style="edgeStyle=orthogonalEdgeStyle;rounded=0;orthogonalLoop=1;jettySize=auto;html=1;fillColor=#ffe6cc;strokeColor=#000000;" edge="1" parent="1" source="vXlqMqH51fkINQWh0kDk-5" target="vXlqMqH51fkINQWh0kDk-10">
          <mxGeometry relative="1" as="geometry">
            <Array as="points">
              <mxPoint x="440" y="240" />
              <mxPoint x="440" y="240" />
            </Array>
          </mxGeometry>
        </mxCell>
        <mxCell id="vXlqMqH51fkINQWh0kDk-16" value="" style="edgeStyle=orthogonalEdgeStyle;rounded=0;orthogonalLoop=1;jettySize=auto;html=1;" edge="1" parent="1" source="vXlqMqH51fkINQWh0kDk-5" target="vXlqMqH51fkINQWh0kDk-15">
          <mxGeometry relative="1" as="geometry">
            <Array as="points">
              <mxPoint x="440" y="330" />
              <mxPoint x="440" y="330" />
            </Array>
          </mxGeometry>
        </mxCell>
        <mxCell id="vXlqMqH51fkINQWh0kDk-5" value="Idle" style="rounded=1;whiteSpace=wrap;html=1;arcSize=40;fontColor=#000000;fillColor=#ffffc0;strokeColor=#ff0000;" vertex="1" parent="1">
          <mxGeometry x="350" y="270" width="120" height="40" as="geometry" />
        </mxCell>
        <mxCell id="0Hrs3ycad6OTjGxLd4VN-1" style="edgeStyle=orthogonalEdgeStyle;rounded=0;orthogonalLoop=1;jettySize=auto;html=1;exitX=0.25;exitY=1;exitDx=0;exitDy=0;entryX=0.25;entryY=0;entryDx=0;entryDy=0;" edge="1" parent="1" source="vXlqMqH51fkINQWh0kDk-10" target="vXlqMqH51fkINQWh0kDk-5">
          <mxGeometry relative="1" as="geometry" />
        </mxCell>
        <mxCell id="0Hrs3ycad6OTjGxLd4VN-27" style="edgeStyle=orthogonalEdgeStyle;rounded=0;orthogonalLoop=1;jettySize=auto;html=1;entryX=0.5;entryY=0;entryDx=0;entryDy=0;" edge="1" parent="1" source="vXlqMqH51fkINQWh0kDk-10" target="0Hrs3ycad6OTjGxLd4VN-3">
          <mxGeometry relative="1" as="geometry" />
        </mxCell>
        <mxCell id="0Hrs3ycad6OTjGxLd4VN-28" value="Server Tone" style="edgeLabel;html=1;align=center;verticalAlign=middle;resizable=0;points=[];" vertex="1" connectable="0" parent="0Hrs3ycad6OTjGxLd4VN-27">
          <mxGeometry x="-0.0291" y="-1" relative="1" as="geometry">
            <mxPoint as="offset" />
          </mxGeometry>
        </mxCell>
        <mxCell id="vXlqMqH51fkINQWh0kDk-10" value="Server Mode" style="rounded=1;whiteSpace=wrap;html=1;arcSize=40;fontColor=#000000;fillColor=#ffffc0;strokeColor=#ff0000;" vertex="1" parent="1">
          <mxGeometry x="350" y="170" width="120" height="40" as="geometry" />
        </mxCell>
        <mxCell id="vXlqMqH51fkINQWh0kDk-12" value="User Input: 2 clicks" style="text;html=1;align=center;verticalAlign=middle;resizable=0;points=[];autosize=1;strokeColor=default;fillColor=none;" vertex="1" parent="1">
          <mxGeometry x="450" y="320" width="120" height="30" as="geometry" />
        </mxCell>
        <mxCell id="vXlqMqH51fkINQWh0kDk-13" value="User Input: 4 clicks" style="text;html=1;align=center;verticalAlign=middle;resizable=0;points=[];autosize=1;strokeColor=default;fillColor=none;" vertex="1" parent="1">
          <mxGeometry x="450" y="230" width="120" height="30" as="geometry" />
        </mxCell>
        <mxCell id="0Hrs3ycad6OTjGxLd4VN-2" style="edgeStyle=orthogonalEdgeStyle;rounded=0;orthogonalLoop=1;jettySize=auto;html=1;exitX=0.25;exitY=0;exitDx=0;exitDy=0;entryX=0.25;entryY=1;entryDx=0;entryDy=0;" edge="1" parent="1" source="vXlqMqH51fkINQWh0kDk-15" target="vXlqMqH51fkINQWh0kDk-5">
          <mxGeometry relative="1" as="geometry" />
        </mxCell>
        <mxCell id="vXlqMqH51fkINQWh0kDk-15" value="Logging Mode" style="rounded=1;whiteSpace=wrap;html=1;arcSize=40;fontColor=#000000;fillColor=#ffffc0;strokeColor=#ff0000;" vertex="1" parent="1">
          <mxGeometry x="350" y="360" width="120" height="40" as="geometry" />
        </mxCell>
        <mxCell id="0Hrs3ycad6OTjGxLd4VN-3" value="&lt;p style=&quot;margin:0px;margin-top:6px;text-align:center;&quot;&gt;&lt;b&gt;userInterface&lt;/b&gt;&lt;/p&gt;&lt;hr size=&quot;1&quot; style=&quot;border-style:solid;&quot;&gt;&lt;p style=&quot;margin:0px;margin-left:8px;&quot;&gt;Button Input&lt;/p&gt;&lt;p style=&quot;margin:0px;margin-left:8px;&quot;&gt;Buzzer output&lt;/p&gt;" style="align=left;overflow=fill;html=1;dropTarget=0;whiteSpace=wrap;" vertex="1" parent="1">
          <mxGeometry x="610" y="250" width="180" height="70" as="geometry" />
        </mxCell>
        <mxCell id="0Hrs3ycad6OTjGxLd4VN-4" value="" style="shape=component;jettyWidth=8;jettyHeight=4;" vertex="1" parent="0Hrs3ycad6OTjGxLd4VN-3">
          <mxGeometry x="1" width="20" height="20" relative="1" as="geometry">
            <mxPoint x="-24" y="4" as="offset" />
          </mxGeometry>
        </mxCell>
        <mxCell id="0Hrs3ycad6OTjGxLd4VN-6" style="edgeStyle=orthogonalEdgeStyle;rounded=0;orthogonalLoop=1;jettySize=auto;html=1;exitX=0;exitY=0.25;exitDx=0;exitDy=0;entryX=1.014;entryY=0.519;entryDx=0;entryDy=0;entryPerimeter=0;" edge="1" parent="1" source="0Hrs3ycad6OTjGxLd4VN-3" target="vXlqMqH51fkINQWh0kDk-13">
          <mxGeometry relative="1" as="geometry" />
        </mxCell>
        <mxCell id="0Hrs3ycad6OTjGxLd4VN-7" style="edgeStyle=orthogonalEdgeStyle;rounded=0;orthogonalLoop=1;jettySize=auto;html=1;exitX=0;exitY=0.75;exitDx=0;exitDy=0;entryX=1.003;entryY=0.556;entryDx=0;entryDy=0;entryPerimeter=0;" edge="1" parent="1" source="0Hrs3ycad6OTjGxLd4VN-3" target="vXlqMqH51fkINQWh0kDk-12">
          <mxGeometry relative="1" as="geometry" />
        </mxCell>
        <mxCell id="0Hrs3ycad6OTjGxLd4VN-15" value="&lt;p style=&quot;margin:0px;margin-top:6px;text-align:center;&quot;&gt;&lt;b&gt;dataLogger&lt;/b&gt;&lt;/p&gt;&lt;hr size=&quot;1&quot; style=&quot;border-style:solid;&quot;&gt;&lt;p style=&quot;margin:0px;margin-left:8px;&quot;&gt;Data Logger State Machine&lt;/p&gt;" style="align=left;overflow=fill;html=1;dropTarget=0;whiteSpace=wrap;" vertex="1" parent="1">
          <mxGeometry x="120" y="310" width="170" height="60" as="geometry" />
        </mxCell>
        <mxCell id="0Hrs3ycad6OTjGxLd4VN-16" value="" style="shape=component;jettyWidth=8;jettyHeight=4;" vertex="1" parent="0Hrs3ycad6OTjGxLd4VN-15">
          <mxGeometry x="1" width="20" height="20" relative="1" as="geometry">
            <mxPoint x="-24" y="4" as="offset" />
          </mxGeometry>
        </mxCell>
        <mxCell id="0Hrs3ycad6OTjGxLd4VN-23" style="edgeStyle=orthogonalEdgeStyle;rounded=0;orthogonalLoop=1;jettySize=auto;html=1;entryX=0.471;entryY=0;entryDx=0;entryDy=0;entryPerimeter=0;" edge="1" parent="1" source="vXlqMqH51fkINQWh0kDk-5" target="0Hrs3ycad6OTjGxLd4VN-15">
          <mxGeometry relative="1" as="geometry" />
        </mxCell>
        <mxCell id="0Hrs3ycad6OTjGxLd4VN-24" value="Stop Logging" style="edgeLabel;html=1;align=center;verticalAlign=middle;resizable=0;points=[];" vertex="1" connectable="0" parent="0Hrs3ycad6OTjGxLd4VN-23">
          <mxGeometry x="-0.1234" relative="1" as="geometry">
            <mxPoint as="offset" />
          </mxGeometry>
        </mxCell>
        <mxCell id="0Hrs3ycad6OTjGxLd4VN-25" style="edgeStyle=orthogonalEdgeStyle;rounded=0;orthogonalLoop=1;jettySize=auto;html=1;entryX=0.476;entryY=1.059;entryDx=0;entryDy=0;entryPerimeter=0;" edge="1" parent="1" source="vXlqMqH51fkINQWh0kDk-15" target="0Hrs3ycad6OTjGxLd4VN-15">
          <mxGeometry relative="1" as="geometry">
            <Array as="points">
              <mxPoint x="410" y="430" />
              <mxPoint x="201" y="430" />
            </Array>
          </mxGeometry>
        </mxCell>
        <mxCell id="0Hrs3ycad6OTjGxLd4VN-26" value="Start Logging" style="edgeLabel;html=1;align=center;verticalAlign=middle;resizable=0;points=[];" vertex="1" connectable="0" parent="0Hrs3ycad6OTjGxLd4VN-25">
          <mxGeometry x="-0.07" y="1" relative="1" as="geometry">
            <mxPoint as="offset" />
          </mxGeometry>
        </mxCell>
        <mxCell id="0Hrs3ycad6OTjGxLd4VN-29" style="edgeStyle=orthogonalEdgeStyle;rounded=0;orthogonalLoop=1;jettySize=auto;html=1;entryX=0.513;entryY=1.054;entryDx=0;entryDy=0;entryPerimeter=0;" edge="1" parent="1" source="vXlqMqH51fkINQWh0kDk-15" target="0Hrs3ycad6OTjGxLd4VN-3">
          <mxGeometry relative="1" as="geometry" />
        </mxCell>
        <mxCell id="0Hrs3ycad6OTjGxLd4VN-30" value="Logging tone" style="edgeLabel;html=1;align=center;verticalAlign=middle;resizable=0;points=[];" vertex="1" connectable="0" parent="0Hrs3ycad6OTjGxLd4VN-29">
          <mxGeometry x="0.0299" y="-2" relative="1" as="geometry">
            <mxPoint as="offset" />
          </mxGeometry>
        </mxCell>
      </root>
    </mxGraphModel>
  </diagram>
  <diagram id="7yvEwlfVGlCORca_zDCp" name="data logger state machine">
    <mxGraphModel dx="1042" dy="626" grid="1" gridSize="10" guides="1" tooltips="1" connect="1" arrows="1" fold="1" page="1" pageScale="1" pageWidth="827" pageHeight="1169" math="0" shadow="0">
      <root>
        <mxCell id="0" />
        <mxCell id="1" parent="0" />
        <mxCell id="UvXa8QpiTsB3UPD_OXhj-11" value="" style="edgeStyle=orthogonalEdgeStyle;rounded=0;orthogonalLoop=1;jettySize=auto;html=1;" edge="1" parent="1" source="H1KMBDjcDPbP_MCuI-Nz-1" target="UvXa8QpiTsB3UPD_OXhj-6">
          <mxGeometry relative="1" as="geometry" />
        </mxCell>
        <mxCell id="H1KMBDjcDPbP_MCuI-Nz-1" value="Idle" style="rounded=1;whiteSpace=wrap;html=1;arcSize=40;fontColor=#000000;fillColor=#ffffc0;strokeColor=#ff0000;" vertex="1" parent="1">
          <mxGeometry x="320" y="170" width="120" height="40" as="geometry" />
        </mxCell>
        <mxCell id="2sJObb8uPuSNDeuMenHU-8" value="" style="edgeStyle=orthogonalEdgeStyle;rounded=0;orthogonalLoop=1;jettySize=auto;html=1;" edge="1" parent="1" source="2sJObb8uPuSNDeuMenHU-1" target="2sJObb8uPuSNDeuMenHU-6">
          <mxGeometry relative="1" as="geometry" />
        </mxCell>
        <mxCell id="2sJObb8uPuSNDeuMenHU-1" value="Start Logging" style="swimlane;fontStyle=1;align=center;verticalAlign=middle;childLayout=stackLayout;horizontal=1;startSize=30;horizontalStack=0;resizeParent=0;resizeLast=1;container=0;fontColor=#000000;collapsible=0;rounded=1;arcSize=26;strokeColor=#ff0000;fillColor=#ffffc0;swimlaneFillColor=#ffffc0;dropTarget=0;" vertex="1" parent="1">
          <mxGeometry x="300" y="280" width="160" height="100" as="geometry" />
        </mxCell>
        <mxCell id="2sJObb8uPuSNDeuMenHU-2" value="Create File In SD&lt;div&gt;Write Metadata and header&lt;/div&gt;&lt;div&gt;Prepare AHRS&lt;br&gt;&lt;div&gt;&lt;br&gt;&lt;/div&gt;&lt;/div&gt;" style="text;html=1;strokeColor=none;fillColor=none;align=center;verticalAlign=middle;spacingLeft=4;spacingRight=4;whiteSpace=wrap;overflow=hidden;rotatable=0;fontColor=#000000;" vertex="1" parent="2sJObb8uPuSNDeuMenHU-1">
          <mxGeometry y="30" width="160" height="70" as="geometry" />
        </mxCell>
        <mxCell id="2sJObb8uPuSNDeuMenHU-11" value="" style="edgeStyle=orthogonalEdgeStyle;rounded=0;orthogonalLoop=1;jettySize=auto;html=1;" edge="1" parent="1" source="2sJObb8uPuSNDeuMenHU-6" target="2sJObb8uPuSNDeuMenHU-9">
          <mxGeometry relative="1" as="geometry" />
        </mxCell>
        <mxCell id="2sJObb8uPuSNDeuMenHU-6" value="Logging" style="swimlane;fontStyle=1;align=center;verticalAlign=middle;childLayout=stackLayout;horizontal=1;startSize=30;horizontalStack=0;resizeParent=0;resizeLast=1;container=0;fontColor=#000000;collapsible=0;rounded=1;arcSize=26;strokeColor=#ff0000;fillColor=#ffffc0;swimlaneFillColor=#ffffc0;dropTarget=0;" vertex="1" parent="1">
          <mxGeometry x="300" y="440" width="160" height="100" as="geometry" />
        </mxCell>
        <mxCell id="2sJObb8uPuSNDeuMenHU-7" value="&lt;div&gt;&lt;div&gt;Read and pool data from AHRS&lt;/div&gt;&lt;div&gt;Process and write data on SD&amp;nbsp;&lt;/div&gt;&lt;/div&gt;" style="text;html=1;strokeColor=none;fillColor=none;align=center;verticalAlign=middle;spacingLeft=4;spacingRight=4;whiteSpace=wrap;overflow=hidden;rotatable=0;fontColor=#000000;" vertex="1" parent="2sJObb8uPuSNDeuMenHU-6">
          <mxGeometry y="30" width="160" height="70" as="geometry" />
        </mxCell>
        <mxCell id="2sJObb8uPuSNDeuMenHU-9" value="Stop Logging" style="swimlane;fontStyle=1;align=center;verticalAlign=middle;childLayout=stackLayout;horizontal=1;startSize=30;horizontalStack=0;resizeParent=0;resizeLast=1;container=0;fontColor=#000000;collapsible=0;rounded=1;arcSize=26;strokeColor=#ff0000;fillColor=#ffffc0;swimlaneFillColor=#ffffc0;dropTarget=0;" vertex="1" parent="1">
          <mxGeometry x="300" y="620" width="160" height="70" as="geometry" />
        </mxCell>
        <mxCell id="2sJObb8uPuSNDeuMenHU-10" value="&lt;div&gt;&lt;div&gt;Close File on SD&lt;/div&gt;&lt;/div&gt;&lt;div&gt;&lt;br&gt;&lt;/div&gt;" style="text;html=1;strokeColor=none;fillColor=none;align=center;verticalAlign=middle;spacingLeft=4;spacingRight=4;whiteSpace=wrap;overflow=hidden;rotatable=0;fontColor=#000000;" vertex="1" parent="2sJObb8uPuSNDeuMenHU-9">
          <mxGeometry y="30" width="160" height="40" as="geometry" />
        </mxCell>
        <mxCell id="2sJObb8uPuSNDeuMenHU-12" style="edgeStyle=orthogonalEdgeStyle;rounded=0;orthogonalLoop=1;jettySize=auto;html=1;entryX=0.5;entryY=0;entryDx=0;entryDy=0;" edge="1" parent="1" source="2sJObb8uPuSNDeuMenHU-10" target="H1KMBDjcDPbP_MCuI-Nz-1">
          <mxGeometry relative="1" as="geometry">
            <Array as="points">
              <mxPoint x="380" y="710" />
              <mxPoint x="490" y="710" />
              <mxPoint x="490" y="130" />
              <mxPoint x="380" y="130" />
            </Array>
          </mxGeometry>
        </mxCell>
        <mxCell id="UvXa8QpiTsB3UPD_OXhj-9" style="edgeStyle=orthogonalEdgeStyle;rounded=0;orthogonalLoop=1;jettySize=auto;html=1;exitX=0.5;exitY=0;exitDx=0;exitDy=0;entryX=0;entryY=0.5;entryDx=0;entryDy=0;" edge="1" parent="1" source="UvXa8QpiTsB3UPD_OXhj-1" target="UvXa8QpiTsB3UPD_OXhj-6">
          <mxGeometry relative="1" as="geometry" />
        </mxCell>
        <mxCell id="UvXa8QpiTsB3UPD_OXhj-10" value="START SIGNAL" style="edgeLabel;html=1;align=center;verticalAlign=middle;resizable=0;points=[];" vertex="1" connectable="0" parent="UvXa8QpiTsB3UPD_OXhj-9">
          <mxGeometry x="0.2315" y="-2" relative="1" as="geometry">
            <mxPoint as="offset" />
          </mxGeometry>
        </mxCell>
        <mxCell id="UvXa8QpiTsB3UPD_OXhj-16" style="edgeStyle=orthogonalEdgeStyle;rounded=0;orthogonalLoop=1;jettySize=auto;html=1;entryX=0;entryY=0.5;entryDx=0;entryDy=0;" edge="1" parent="1" source="UvXa8QpiTsB3UPD_OXhj-1" target="UvXa8QpiTsB3UPD_OXhj-15">
          <mxGeometry relative="1" as="geometry">
            <Array as="points">
              <mxPoint x="130" y="584" />
            </Array>
          </mxGeometry>
        </mxCell>
        <mxCell id="UvXa8QpiTsB3UPD_OXhj-17" value="STOP SIGNAL" style="edgeLabel;html=1;align=center;verticalAlign=middle;resizable=0;points=[];" vertex="1" connectable="0" parent="UvXa8QpiTsB3UPD_OXhj-16">
          <mxGeometry x="0.1052" y="-2" relative="1" as="geometry">
            <mxPoint as="offset" />
          </mxGeometry>
        </mxCell>
        <mxCell id="UvXa8QpiTsB3UPD_OXhj-1" value="&lt;p style=&quot;margin:0px;margin-top:6px;text-align:center;&quot;&gt;&lt;b&gt;systemManager&lt;/b&gt;&lt;/p&gt;&lt;hr size=&quot;1&quot; style=&quot;border-style:solid;&quot;&gt;&lt;p style=&quot;margin:0px;margin-left:8px;&quot;&gt;&lt;br&gt;&lt;/p&gt;" style="align=left;overflow=fill;html=1;dropTarget=0;whiteSpace=wrap;" vertex="1" parent="1">
          <mxGeometry x="40" y="400" width="180" height="60" as="geometry" />
        </mxCell>
        <mxCell id="UvXa8QpiTsB3UPD_OXhj-2" value="" style="shape=component;jettyWidth=8;jettyHeight=4;" vertex="1" parent="UvXa8QpiTsB3UPD_OXhj-1">
          <mxGeometry x="1" width="20" height="20" relative="1" as="geometry">
            <mxPoint x="-24" y="4" as="offset" />
          </mxGeometry>
        </mxCell>
        <mxCell id="UvXa8QpiTsB3UPD_OXhj-14" style="edgeStyle=orthogonalEdgeStyle;rounded=0;orthogonalLoop=1;jettySize=auto;html=1;entryX=0.5;entryY=0;entryDx=0;entryDy=0;" edge="1" parent="1" source="UvXa8QpiTsB3UPD_OXhj-6" target="2sJObb8uPuSNDeuMenHU-1">
          <mxGeometry relative="1" as="geometry" />
        </mxCell>
        <mxCell id="UvXa8QpiTsB3UPD_OXhj-25" style="edgeStyle=orthogonalEdgeStyle;rounded=0;orthogonalLoop=1;jettySize=auto;html=1;exitX=1;exitY=0.5;exitDx=0;exitDy=0;" edge="1" parent="1" source="UvXa8QpiTsB3UPD_OXhj-6">
          <mxGeometry relative="1" as="geometry">
            <mxPoint x="430" y="220" as="targetPoint" />
          </mxGeometry>
        </mxCell>
        <mxCell id="UvXa8QpiTsB3UPD_OXhj-6" value="Start" style="rhombus;whiteSpace=wrap;html=1;fontColor=#000000;fillColor=#ffffc0;strokeColor=#ff0000;" vertex="1" parent="1">
          <mxGeometry x="350" y="230" width="60" height="30" as="geometry" />
        </mxCell>
        <mxCell id="UvXa8QpiTsB3UPD_OXhj-22" style="edgeStyle=orthogonalEdgeStyle;rounded=0;orthogonalLoop=1;jettySize=auto;html=1;exitX=1;exitY=0.5;exitDx=0;exitDy=0;" edge="1" parent="1" source="UvXa8QpiTsB3UPD_OXhj-15">
          <mxGeometry relative="1" as="geometry">
            <mxPoint x="440" y="549.9999999999999" as="targetPoint" />
          </mxGeometry>
        </mxCell>
        <mxCell id="UvXa8QpiTsB3UPD_OXhj-15" value="Stop" style="rhombus;whiteSpace=wrap;html=1;fontColor=#000000;fillColor=#ffffc0;strokeColor=#ff0000;" vertex="1" parent="1">
          <mxGeometry x="350" y="569.5" width="60" height="30" as="geometry" />
        </mxCell>
        <mxCell id="UvXa8QpiTsB3UPD_OXhj-21" value="yes" style="text;html=1;align=center;verticalAlign=middle;resizable=0;points=[];autosize=1;strokeColor=none;fillColor=none;" vertex="1" parent="1">
          <mxGeometry x="374" y="590" width="40" height="30" as="geometry" />
        </mxCell>
        <mxCell id="UvXa8QpiTsB3UPD_OXhj-23" value="no" style="text;html=1;align=center;verticalAlign=middle;resizable=0;points=[];autosize=1;strokeColor=none;fillColor=none;" vertex="1" parent="1">
          <mxGeometry x="400" y="558" width="40" height="30" as="geometry" />
        </mxCell>
        <mxCell id="UvXa8QpiTsB3UPD_OXhj-24" value="yes" style="text;html=1;align=center;verticalAlign=middle;resizable=0;points=[];autosize=1;strokeColor=none;fillColor=none;" vertex="1" parent="1">
          <mxGeometry x="374" y="250" width="40" height="30" as="geometry" />
        </mxCell>
        <mxCell id="UvXa8QpiTsB3UPD_OXhj-26" value="no" style="text;html=1;align=center;verticalAlign=middle;resizable=0;points=[];autosize=1;strokeColor=none;fillColor=none;" vertex="1" parent="1">
          <mxGeometry x="390" y="218" width="40" height="30" as="geometry" />
        </mxCell>
      </root>
    </mxGraphModel>
  </diagram>
</mxfile>
